<?xml version="1.0" standalone="no"?>
<!DOCTYPE svg PUBLIC "-//W3C//DTD SVG 20010904//EN"
 "http://www.w3.org/TR/2001/REC-SVG-20010904/DTD/svg10.dtd">
<svg version="1.0" xmlns="http://www.w3.org/2000/svg"
 width="80.000000pt" height="80.000000pt" viewBox="0 0 80.000000 80.000000"
 preserveAspectRatio="xMidYMid meet">

<g transform="translate(0.000000,80.000000) scale(0.100000,-0.100000)"
fill="#F0283C" stroke="none">
<path d="M417 725 c-10 -9 -17 -31 -17 -49 0 -29 -4 -34 -30 -40 -19 -3 -34
-15 -42 -31 -9 -21 -18 -25 -55 -25 -78 0 -123 -40 -123 -110 0 -19 -5 -30
-13 -30 -22 0 -47 -34 -47 -63 0 -17 -5 -27 -15 -27 -8 0 -15 -4 -15 -10 0 -5
7 -10 15 -10 10 0 15 -10 15 -28 0 -29 26 -62 48 -62 7 0 12 -16 12 -40 0 -52
21 -93 55 -108 36 -16 364 -16 400 0 34 15 55 56 55 105 0 32 5 41 30 55 23
13 30 24 30 48 0 20 5 30 15 30 8 0 15 5 15 10 0 6 -7 10 -15 10 -10 0 -15 10
-15 30 0 24 -7 35 -30 48 -22 12 -30 24 -30 45 0 66 -46 107 -119 107 -31 0
-40 5 -49 25 -8 16 -23 28 -42 31 -26 6 -30 11 -30 40 0 18 5 36 10 39 17 11
50 -5 50 -24 0 -41 52 -53 74 -18 16 24 -4 51 -40 54 -16 1 -41 5 -55 9 -17 4
-31 0 -42 -11z m119 -26 c10 -17 -13 -36 -27 -22 -12 12 -4 33 11 33 5 0 12
-5 16 -11z m-68 -91 c7 -7 12 -20 12 -30 0 -15 9 -18 55 -18 77 0 105 -27 105
-101 0 -43 3 -50 16 -45 30 11 44 -13 44 -74 0 -61 -14 -85 -44 -74 -14 5 -16
-3 -16 -55 0 -52 -4 -66 -25 -86 -24 -25 -26 -25 -210 -25 -184 0 -186 0 -210
25 -21 20 -25 34 -25 86 0 52 -2 60 -16 55 -30 -11 -44 13 -44 74 0 61 14 85
44 74 13 -5 16 2 16 45 0 75 28 101 110 101 51 0 60 3 60 18 0 29 21 42 70 42
25 0 51 -5 58 -12z"/>
<path d="M360 570 c0 -5 5 -10 10 -10 6 0 10 5 10 10 0 6 -4 10 -10 10 -5 0
-10 -4 -10 -10z"/>
<path d="M400 570 c0 -5 5 -10 10 -10 6 0 10 5 10 10 0 6 -4 10 -10 10 -5 0
-10 -4 -10 -10z"/>
<path d="M440 570 c0 -5 5 -10 10 -10 6 0 10 5 10 10 0 6 -4 10 -10 10 -5 0
-10 -4 -10 -10z"/>
<path d="M477 432 c-33 -36 -8 -92 40 -92 25 0 53 30 53 57 0 46 -62 69 -93
35z m67 -24 c8 -14 7 -21 -6 -34 -30 -30 -75 9 -48 42 16 18 39 15 54 -8z"/>
<path d="M260 433 c0 -3 7 -15 17 -25 15 -17 15 -19 -2 -38 -24 -26 -11 -39
15 -15 19 17 21 17 40 0 26 -24 39 -11 15 15 -17 19 -17 21 0 40 24 26 11 39
-15 15 -19 -17 -21 -17 -38 -2 -19 18 -32 22 -32 10z"/>
<path d="M150 380 c0 -5 5 -10 10 -10 6 0 10 5 10 10 0 6 -4 10 -10 10 -5 0
-10 -4 -10 -10z"/>
<path d="M640 380 c0 -5 5 -10 10 -10 6 0 10 5 10 10 0 6 -4 10 -10 10 -5 0
-10 -4 -10 -10z"/>
<path d="M150 340 c0 -5 5 -10 10 -10 6 0 10 5 10 10 0 6 -4 10 -10 10 -5 0
-10 -4 -10 -10z"/>
<path d="M640 340 c0 -5 5 -10 10 -10 6 0 10 5 10 10 0 6 -4 10 -10 10 -5 0
-10 -4 -10 -10z"/>
<path d="M150 300 c0 -5 5 -10 10 -10 6 0 10 5 10 10 0 6 -4 10 -10 10 -5 0
-10 -4 -10 -10z"/>
<path d="M640 300 c0 -5 5 -10 10 -10 6 0 10 5 10 10 0 6 -4 10 -10 10 -5 0
-10 -4 -10 -10z"/>
<path d="M288 224 c-16 -8 -28 -19 -28 -24 0 -14 13 -12 36 4 16 13 22 13 41
0 18 -11 27 -12 48 -2 19 8 31 8 50 0 21 -10 30 -9 48 2 19 13 25 13 41 0 23
-16 36 -18 36 -4 0 5 -14 17 -30 25 -27 14 -33 14 -52 1 -18 -13 -23 -13 -44
1 -22 14 -26 14 -48 0 -20 -14 -26 -14 -42 -2 -23 18 -23 18 -56 -1z"/>
<path d="M220 200 c0 -5 5 -10 10 -10 6 0 10 5 10 10 0 6 -4 10 -10 10 -5 0
-10 -4 -10 -10z"/>
<path d="M580 200 c0 -5 5 -10 10 -10 6 0 10 5 10 10 0 6 -4 10 -10 10 -5 0
-10 -4 -10 -10z"/>
</g>
</svg>
